<?xml version="1.0" encoding="utf-8"?>
<svg version="1.1" id="Capa_1" xmlns="http://www.w3.org/2000/svg" xmlns:xlink="http://www.w3.org/1999/xlink" x="0px" y="0px" viewBox="10,0 80,220" preserveAspectRatio="none">
<g>
	
	
	<path style="fill:#351F10;" d="M37.017,150.904h31.73c0,0,3.379-74.436-14.832-73.957C28.296,77.621,37.017,150.904,37.017,150.904
		z"/>
	<path id="s6" style="fill:#665E5A;" d="M51.218,74.924c-4.043,0-11.459,4.719-11.459,4.719l28.988,49.43l-0.674-49.43L51.218,74.924z"/>
	<polygon style="fill:#351F10;" points="45.151,87.734 90.659,139.477 48.185,118.881 	"/>
	<g>
		
			<ellipse transform="matrix(0.9889 0.1484 -0.1484 0.9889 8.9258 -7.3266)" style="fill:#EABB98;" cx="53.549" cy="56.137" rx="25.619" ry="20.9"/>
		<path style="fill:#351F10;" d="M40.646,73.969l9.4-8.133l23.605-20.998l7.902-11.768c0,0-43.298-20.252-53.472,11.062
			C20.478,67.535,40.646,73.969,40.646,73.969z"/>
		<circle style="fill:#EABB98;" cx="55.382" cy="59.82" r="7.078"/>
	</g>
	<polygon style="fill:#FFFFFF;" points="63.981,76.771 48.478,75.053 55.892,91.348 65.325,79.891 80.419,82.553 74.206,65.906 	"/>
	<path id ="leg" style="fill:#351F10;" d="M41.05,147.904c0,0,6.82,33.373,10.191,61.014l21.574-0.674l-11.461-6.404l6.383-53.936H41.05z"/>
	<g>
		
			<rect x="9.102" y="32.782" transform="matrix(0.857 -0.5153 0.5153 0.857 -12.1721 28.3598)" style="fill:#351F10;" width="71.834" height="6.664"/>
		
			<rect x="16.755" y="7.457" transform="matrix(0.857 -0.5153 0.5153 0.857 -6.3535 21.3501)" style="fill:#351F10;" width="37.082" height="29.334"/>
		
			<rect x="36.175" y="11.823" transform="matrix(-0.5152 -0.8571 0.8571 -0.5152 34.9639 80.505)" style="fill:#665E5A;" width="8.149" height="37.082"/>
	</g>
	
	<!-- heart
	<path style="fill:#FE0000;" d="M112.309,32.496c-2.84-4.957-8.353-1.826-10.021,0.656c-1.666-2.482-7.182-5.613-10.019-0.656
		c-3.723,6.498,5.178,11.785,9.938,14.441c0,0,0.057,0.061,0.082,0.047c0.027,0.014,0.082-0.047,0.082-0.047
		C107.129,44.281,116.03,38.994,112.309,32.496z"/> -->
</g>

</svg>