<?xml version="1.0" encoding="utf-8"?>
<svg id="Capa_1" x="0px" y="0px" viewBox="10,0 90,220" preserveAspectRatio="none" xmlns="http://www.w3.org/2000/svg">
  <path style="fill:#351F10;" d="M 37.017 150.904 L 68.747 150.904 C 68.747 150.904 72.126 76.468 53.915 76.947 C 28.296 77.621 37.017 150.904 37.017 150.904 Z"/>
  <path id="s6" style="fill:#665E5A;" d="M 51.218 74.924 C 47.175 74.924 39.759 79.643 39.759 79.643 L 68.747 129.073 L 68.073 79.643 L 51.218 74.924 Z"/>
  <polygon style="fill:#351F10;" points="45.151 87.734 90.659 139.477 48.185 118.881"/>
  <ellipse transform="matrix(0.988927, 0.148404, -0.148404, 0.988927, 8.925814, -7.326602)" style="fill:#EABB98;" cx="53.548" cy="56.135" rx="25.618" ry="20.899"/>
  <path style="fill:#351F10;" d="M 40.646 73.969 L 50.046 65.836 L 73.651 44.838 L 81.553 33.07 C 81.553 33.07 38.255 12.818 28.081 44.132 C 20.478 67.535 40.646 73.969 40.646 73.969 Z"/>
  <circle style="fill:#EABB98;" cx="55.382" cy="59.82" r="7.078"/>
  <polygon style="fill:#FFFFFF;" points="63.981 76.771 48.478 75.053 55.892 91.348 65.325 79.891 80.419 82.553 74.206 65.906"/>
  <path id="leg1" style="fill:#351F10;" d="M 23.941 139.168 C 23.941 139.168 30.761 172.541 34.132 200.182 L 55.706 199.508 L 44.245 193.104 L 50.628 139.168 L 23.941 139.168 Z" transform="matrix(0.87462, 0.48481, -0.48481, 0.87462, 87.253192, 1.967099)"/>
  <rect x="9.102" y="32.782" transform="matrix(0.857007, -0.515304, 0.515304, 0.857008, -12.172101, 28.359783)" style="fill:#351F10;" width="71.833" height="6.664"/>
  <rect x="16.755" y="7.457" transform="matrix(0.857007, -0.515304, 0.515304, 0.857007, -6.353498, 21.350099)" style="fill:#351F10;" width="37.082" height="29.334"/>
  <rect x="36.176" y="11.823" transform="matrix(-0.515187, -0.857078, 0.857078, -0.515187, 34.963897, 80.505005)" style="fill:#665E5A;" width="8.149" height="37.083"/>
  <path d="M 66.381 149.132 C 66.381 149.132 66.381 149.132 66.381 149.132 Z" style="fill: none; stroke: black;"/>
  <path id="leg2" style="fill:#351F10;" d="M 51.954 140.103 C 51.954 140.103 58.774 173.476 62.145 201.117 L 83.719 200.443 L 72.258 194.039 L 78.641 140.103 L 51.954 140.103 Z" transform="matrix(0.906308, -0.422618, 0.422618, 0.906308, -65.747116, 44.653741)"/>
</svg>