<?xml version="1.0" encoding="utf-8"?>
<svg version="1.1" id="Capa_1" xmlns="http://www.w3.org/2000/svg" xmlns:xlink="http://www.w3.org/1999/xlink" x="0px" y="0px" preserveAspectRatio="none">
<g>
	<path id="s1" style="fill:#FFF7E9;" d="M77.329,204.234c0,0,12.468-87.09,50.331-80.172c37.863,6.916,50.123,75.451,50.123,75.451
		S139.354,225.809,77.329,204.234z"/>
	<ellipse style="fill:#EABB98;" cx="124.032" cy="75.092" rx="25.619" ry="20.9"/>
	<path id="s2" style="fill:#351F10;" d="M147.311,63.447c10.936-10.051,6.209-23.656-9.123-26.109c-12.09-1.936-14.813,8.967-15.387,15.283
		c-4.543,0.654-9.723,2.387-15.625,5.615c0,0,9.439,28.992,26.293,35.732c0,0,20.9-3.371,18.877-20.225
		C152.346,73.744,150.975,68.662,147.311,63.447z"/>
	<path id="s3" style="fill:#F9EDDC;" d="M130.098,63.631c1.156-0.744,4.721-3.654,2.779-5.172c-1.523-1.191-5.496,2.146-5.281,3.457
		c0.027-1.695-0.557-5.582-2.871-4.27c-1.627,0.926-0.883,5.397,0.162,6.727c-1.174-1.895-5.793-1.689-6.172,0.275
		c-0.656,3.422,4.609,3.557,6.686,2.35c-1.398,1.648-3.498,4.379-1.477,5.816c0.197,0.139,2.23,0.154,2.484,0.018
		c0.652-0.348,1.238-1.361,1.486-2.309c0.191,1.57,0.91,3.375,2.336,3.213c2.902-0.332,1.865-5.822,0.791-7.098
		c1.422,1.299,4.082,1.123,4.48-0.715C136.184,62.783,132.069,62.281,130.098,63.631z"/>
	<path id="s4" style="fill:#F7F2E8;" d="M147.311,63.447l-17.213,0.184l23.598,66.744l47.191-20.898
		C200.887,109.477,174.635,63.939,147.311,63.447z"/>
	<path id="s5" style="fill:#EABB98;" d="M114.592,107.453c0,0-1.348-12.135,9.439-11.461c10.787,0.674,10.111,16.854,10.111,16.854
		L114.592,107.453z"/>
	<polygon style="fill:#F9EDDC;" points="113.883,102.396 117.37,128.355 132.073,128.242 135.038,108.465 	"/>
	<polygon style="fill:#EABB98;" points="124.03,101.387 89.647,138.467 130.774,105.43 	"/>
	<ellipse style="fill:#EABB98;" cx="121.334" cy="80.822" rx="5.394" ry="7.08"/>
	<path style="fill:#351F10;" d="M37.017,150.904h31.73c0,0,3.379-74.436-14.832-73.957C28.296,77.621,37.017,150.904,37.017,150.904
		z"/>
	<path id="s6" style="fill:#665E5A;" d="M51.218,74.924c-4.043,0-11.459,4.719-11.459,4.719l28.988,49.43l-0.674-49.43L51.218,74.924z"/>
	<polygon style="fill:#351F10;" points="45.151,87.734 90.659,139.477 48.185,118.881 	"/>
	<g>
		
			<ellipse transform="matrix(0.9889 0.1484 -0.1484 0.9889 8.9258 -7.3266)" style="fill:#EABB98;" cx="53.549" cy="56.137" rx="25.619" ry="20.9"/>
		<path style="fill:#351F10;" d="M40.646,73.969l9.4-8.133l23.605-20.998l7.902-11.768c0,0-43.298-20.252-53.472,11.062
			C20.478,67.535,40.646,73.969,40.646,73.969z"/>
		<circle style="fill:#EABB98;" cx="55.382" cy="59.82" r="7.078"/>
	</g>
	<polygon style="fill:#FFFFFF;" points="63.981,76.771 48.478,75.053 55.892,91.348 65.325,79.891 80.419,82.553 74.206,65.906 	"/>
	<path style="fill:#351F10;" d="M41.05,147.904c0,0,6.82,33.373,10.191,61.014l21.574-0.674l-11.461-6.404l6.383-53.936H41.05z"/>
	<g>
		
			<rect x="9.102" y="32.782" transform="matrix(0.857 -0.5153 0.5153 0.857 -12.1721 28.3598)" style="fill:#351F10;" width="71.834" height="6.664"/>
		
			<rect x="16.755" y="7.457" transform="matrix(0.857 -0.5153 0.5153 0.857 -6.3535 21.3501)" style="fill:#351F10;" width="37.082" height="29.334"/>
		
			<rect x="36.175" y="11.823" transform="matrix(-0.5152 -0.8571 0.8571 -0.5152 34.9639 80.505)" style="fill:#665E5A;" width="8.149" height="37.082"/>
	</g>
	<path style="fill:#F9EDDC;" d="M117.37,128.355c0,0-26.082,64.555,56.918,54.889c0,0,1.57-42.004-42.215-58.002L117.37,128.355z"/>
	<path style="fill:#F9EDDC;" d="M109.883,116.643l-20.236,21.824l23.734-19.066C112.223,118.471,111.057,117.553,109.883,116.643z"
		/>
	<path style="fill:#FE0000;" d="M112.309,32.496c-2.84-4.957-8.353-1.826-10.021,0.656c-1.666-2.482-7.182-5.613-10.019-0.656
		c-3.723,6.498,5.178,11.785,9.938,14.441c0,0,0.057,0.061,0.082,0.047c0.027,0.014,0.082-0.047,0.082-0.047
		C107.129,44.281,116.03,38.994,112.309,32.496z"/>
</g>

</svg>